# xmcd
#
# Track frame offsets: 
#        150
#        8482
#        25347
#        39635
#        56561
#        67962
#        84152
#        96801
#        116397
#        139882
#
# Disc length: 2043 seconds
#
# Revision: 0
# Processed by: cddbd v1.5.2PL0 Copyright (c) Steve Scherf et al.
# Submitted via: ExactAudioCopy v0.99pb5
#
DISCID=7407f90a
DTITLE=John Bailey (featuring the Eric Ducoff Band) - One With The Bl
DTITLE=ues
DYEAR=2011
DGENRE=Blues
TTITLE0=Just Ain't Home No More
TTITLE1=High and Dry
TTITLE2=Some Real Love
TTITLE3=Tavern Woman
TTITLE4=Faze Four
TTITLE5=My Sad Dream
TTITLE6=I'd Better Look (Before I Leap)
TTITLE7=I'm a Free Man
TTITLE8=The Great Valley Flood
TTITLE9=Little Laveaux
EXTD=
EXTT0=
EXTT1=
EXTT2=
EXTT3=
EXTT4=
EXTT5=
EXTT6=
EXTT7=
EXTT8=
EXTT9=
PLAYORDER=
